<?xml version="1.0" standalone="no"?>
<!DOCTYPE svg PUBLIC "-//W3C//DTD SVG 20010904//EN"
 "http://www.w3.org/TR/2001/REC-SVG-20010904/DTD/svg10.dtd">
<svg version="1.0" xmlns="http://www.w3.org/2000/svg"
 width="95.000000pt" height="95.000000pt" viewBox="0 0 95.000000 95.000000"
 preserveAspectRatio="xMidYMid meet">
<metadata>
Created by potrace 1.11, written by Peter Selinger 2001-2013
</metadata>
<g transform="translate(0.000000,95.000000) scale(0.100000,-0.100000)"
fill="#000000" stroke="none">
<path d="M371 929 c-13 -5 -35 -10 -48 -11 -12 -1 -23 -6 -23 -11 0 -4 -4 -5
-10 -2 -5 3 -10 2 -10 -3 0 -6 -11 -13 -24 -16 -13 -3 -38 -19 -54 -35 -17
-15 -33 -27 -35 -25 -2 3 -13 -7 -23 -22 -10 -14 -30 -37 -43 -52 -20 -22 -50
-79 -52 -97 0 -2 -6 -20 -14 -39 -31 -73 -26 -263 7 -303 6 -7 8 -13 4 -13
-10 0 23 -60 58 -105 59 -77 124 -124 231 -167 28 -11 185 -26 190 -17 3 3 22
9 42 13 51 8 158 60 172 83 6 10 11 14 11 8 1 -28 128 140 134 177 1 7 5 18 8
24 15 23 30 149 25 207 -8 89 -69 237 -98 237 -5 0 -9 6 -9 13 0 7 -11 23 -26
36 -42 37 -124 93 -124 86 0 -4 -11 0 -24 8 -13 9 -37 19 -53 23 -48 11 -187
13 -212 3z"/>
</g>
</svg>
